<svg preserveAspectRatio="xMidYMid meet" width="100%" height="100%" overflow="visible" style="display: block;" viewBox="0 0 35.8889 26.5556" fill="none" xmlns="http://www.w3.org/2000/svg">
<path id="Vector" d="M27.2778 24.9444C31.1438 24.9444 34.2778 21.8104 34.2778 17.9444V13.278M34.2778 13.278V5.34088C34.2778 4.03664 34.2778 3.38352 34.0237 2.88488C33.8 2.44583 33.4421 2.08914 33.0031 1.86543C32.5039 1.61112 31.8515 1.61112 30.5447 1.61112H26.3447C25.0379 1.61112 24.384 1.61112 23.8849 1.86543C23.4458 2.08914 23.0891 2.44583 22.8654 2.88488C22.6111 3.38401 22.6111 4.03789 22.6111 5.34468V9.54468C22.6111 10.8515 22.6111 11.5039 22.8654 12.0031C23.0891 12.4421 23.4458 12.8 23.8849 13.0237C24.3835 13.2778 25.0366 13.2778 26.3408 13.2778L34.2778 13.278ZM6.27778 24.9444C10.1438 24.9444 13.2778 21.8104 13.2778 17.9444L13.2778 13.278M13.2778 13.278V5.34085C13.2778 4.03662 13.2778 3.38352 13.0237 2.88488C12.8 2.44583 12.4421 2.08914 12.0031 1.86543C11.5039 1.61112 10.8515 1.61112 9.54468 1.61112H5.34468C4.03789 1.61112 3.38401 1.61112 2.88488 1.86543C2.44583 2.08914 2.08914 2.44583 1.86543 2.88488C1.61112 3.38401 1.61112 4.03789 1.61112 5.34468V9.54468C1.61112 10.8515 1.61112 11.5039 1.86543 12.0031C2.08914 12.4421 2.44583 12.8 2.88488 13.0237C3.38352 13.2778 4.03661 13.2778 5.34084 13.2778L13.2778 13.278Z" stroke="var(--stroke-0, white)" stroke-width="3.22222" stroke-linecap="round" stroke-linejoin="round"/>
</svg>
